<?xml version="1.0" standalone="no"?>
<!DOCTYPE svg PUBLIC "-//W3C//DTD SVG 20010904//EN"
 "http://www.w3.org/TR/2001/REC-SVG-20010904/DTD/svg10.dtd">
<svg version="1.0" xmlns="http://www.w3.org/2000/svg"
 width="512.000000pt" height="512.000000pt" viewBox="0 0 512.000000 512.000000"
 preserveAspectRatio="xMidYMid meet">
<metadata>
Created by potrace 1.11, written by Peter Selinger 2001-2013
</metadata>
<g transform="translate(0.000000,512.000000) scale(0.100000,-0.100000)"
fill="#000000" stroke="none">
<path d="M2133 5106 c-4 -5 -1 -6 5 -2 7 4 12 3 12 -3 0 -10 19 -9 38 2 7 5
12 3 12 -4 0 -8 5 -7 18 2 15 12 16 12 5 -2 -7 -9 -11 -18 -8 -21 3 -2 -2 -5
-10 -5 -8 0 -12 4 -9 8 2 4 -10 6 -28 5 -18 -2 -38 1 -45 6 -7 5 -14 5 -17 -1
-4 -6 -13 -8 -21 -4 -8 3 -15 0 -15 -7 0 -6 4 -9 9 -6 5 3 12 -1 15 -9 4 -12
2 -13 -12 -7 -9 5 -24 7 -32 4 -13 -5 -13 -3 0 13 14 17 14 17 -7 4 -21 -13
-21 -14 -5 -34 16 -19 15 -19 -8 1 -24 21 -65 30 -54 12 8 -13 -11 -9 -25 5
-10 10 -11 9 -6 -5 4 -10 12 -18 18 -18 6 0 8 -3 4 -6 -3 -3 -12 -2 -19 2 -19
12 -38 14 -38 3 0 -5 -11 -9 -25 -9 -14 0 -25 -5 -25 -11 0 -5 5 -7 12 -3 7 4
8 3 4 -5 -6 -8 -12 -9 -20 -2 -7 6 -16 8 -19 4 -4 -3 -13 0 -21 7 -13 10 -20
8 -42 -9 -32 -26 -52 -28 -33 -3 11 14 10 13 -9 -2 -22 -19 -30 -32 -13 -22 5
3 8 -5 7 -18 -1 -23 -2 -23 -17 -8 -9 10 -15 20 -12 24 2 4 -3 5 -13 1 -15 -5
-15 -7 0 -15 9 -5 14 -14 10 -19 -4 -6 -14 -3 -27 8 -11 10 -17 12 -12 4 6
-11 2 -13 -21 -7 -27 7 -27 6 -10 -7 17 -13 17 -14 2 -20 -10 -4 -15 -3 -11 3
4 6 -3 9 -16 7 -13 -2 -25 -10 -27 -18 -3 -11 -2 -11 6 -1 7 11 11 10 20 -1 9
-11 7 -13 -11 -12 -12 1 -26 -3 -30 -9 -5 -6 -5 0 -2 14 5 19 4 22 -4 10 -10
-13 -11 -13 -11 0 0 13 -2 13 -9 1 -8 -13 -12 -13 -27 0 -14 10 -12 6 4 -18
22 -31 22 -32 3 -28 -11 2 -25 -3 -31 -11 -14 -16 -34 -8 -24 9 4 7 4 9 -1 5
-4 -4 -15 -2 -23 5 -12 9 -11 5 2 -15 16 -25 16 -26 -1 -24 -10 2 -22 -2 -26
-8 -6 -7 -7 -6 -4 4 2 8 10 14 16 12 7 -1 10 2 6 7 -9 16 -35 1 -35 -20 0 -16
-4 -18 -18 -10 -13 7 -19 6 -20 -2 -2 -25 -8 -47 -16 -54 -4 -4 -6 -1 -4 7 2
8 -3 14 -11 12 -7 -1 -20 3 -29 10 -12 10 -14 10 -8 1 4 -7 9 -22 11 -34 3
-17 1 -19 -10 -9 -10 8 -15 8 -20 0 -4 -7 -18 -10 -30 -8 -15 3 -22 1 -19 -7
3 -6 -2 -12 -11 -12 -8 0 -15 4 -15 9 0 4 -6 8 -12 8 -7 -1 -2 -10 11 -20 26
-22 21 -26 -12 -9 l-22 12 20 -23 c11 -13 15 -21 9 -17 -22 13 -64 16 -61 4 1
-7 -4 -11 -11 -9 -8 1 -11 -2 -6 -9 5 -9 2 -10 -11 -5 -15 5 -16 4 -6 -8 10
-12 9 -15 -6 -15 -39 -1 -52 -5 -50 -14 1 -5 -6 -11 -16 -12 -27 -5 -30 -10
-12 -25 13 -11 14 -10 8 6 -6 17 -5 17 11 5 13 -11 14 -16 4 -22 -6 -4 -16 -6
-20 -3 -4 3 -17 0 -28 -6 -16 -9 -18 -15 -10 -29 8 -16 7 -18 -9 -14 -13 3
-18 11 -15 21 3 10 -7 -2 -21 -25 -15 -24 -31 -43 -37 -43 -5 0 -2 10 6 22 9
12 16 27 16 33 0 5 -9 -5 -21 -24 -11 -18 -18 -40 -15 -47 3 -7 0 -16 -6 -20
-7 -4 -8 -3 -4 4 4 7 2 12 -4 12 -6 0 -8 6 -4 13 4 6 -2 4 -13 -6 -11 -9 -22
-15 -24 -12 -3 2 -6 -7 -7 -21 -1 -14 2 -23 7 -19 5 3 13 1 16 -5 4 -6 3 -10
-2 -9 -4 1 -10 0 -13 -1 -19 -7 -39 -7 -34 1 3 5 11 6 17 3 7 -4 8 -3 4 1 -12
14 -37 15 -34 2 1 -7 -5 -11 -13 -9 -12 3 -13 1 -2 -9 16 -18 15 -29 -4 -29
-8 0 -22 -7 -30 -15 -9 -8 -12 -15 -7 -15 5 0 14 5 19 10 7 7 11 6 11 -4 0 -8
-5 -12 -10 -9 -7 4 -8 -1 -3 -12 6 -15 4 -16 -10 -5 -13 12 -17 11 -25 -1 -5
-8 -9 -10 -9 -5 0 5 -6 3 -14 -4 -17 -13 -10 -43 8 -33 6 3 7 2 3 -2 -10 -12
-39 -16 -32 -5 3 5 1 11 -4 14 -5 4 -8 -2 -6 -11 2 -10 4 -22 4 -26 1 -5 6 -5
13 -1 7 5 8 3 3 -6 -6 -10 -13 -8 -28 11 -17 20 -19 21 -13 4 3 -13 -3 -35
-19 -60 -13 -22 -25 -35 -25 -30 0 6 -9 -3 -19 -19 -11 -17 -18 -33 -15 -38 3
-4 -2 -5 -11 -1 -13 4 -14 7 -3 14 9 6 6 8 -10 6 -13 -1 -18 -5 -12 -11 13
-13 -8 -49 -23 -39 -8 4 -8 2 1 -9 9 -11 10 -18 2 -23 -6 -3 -8 -11 -5 -16 3
-5 -1 -6 -9 -3 -9 3 -16 11 -16 17 0 6 -3 7 -6 4 -4 -4 -1 -13 5 -21 8 -10 9
-16 1 -21 -6 -3 -7 -11 -4 -17 4 -7 2 -8 -5 -4 -9 6 -9 11 0 22 10 12 9 13 -5
8 -14 -5 -22 -39 -16 -69 1 -5 -8 -1 -19 9 -13 12 -19 13 -17 4 3 -21 17 -39
26 -33 5 3 11 1 15 -4 6 -10 -16 -8 -50 5 -20 7 -20 7 0 -12 11 -10 16 -16 11
-11 -19 14 -28 7 -15 -10 10 -12 11 -15 1 -9 -16 10 -45 -13 -38 -31 4 -10 -1
-12 -19 -9 -14 3 -27 1 -29 -3 -3 -4 9 -7 27 -7 25 1 31 5 29 20 -2 12 1 16 9
10 8 -5 10 -3 4 6 -5 9 -4 11 3 6 16 -10 -4 -47 -29 -53 -10 -3 -19 -10 -19
-15 0 -5 -4 -7 -9 -3 -5 3 -13 0 -17 -6 -4 -8 -3 -9 4 -5 7 4 12 3 12 -3 0 -6
6 -9 13 -7 6 1 9 1 4 -1 -4 -3 -4 -9 -1 -15 4 -6 -3 -5 -15 1 -23 13 -41 7
-41 -12 0 -7 4 -6 10 3 10 16 23 8 26 -15 3 -17 -19 -37 -37 -33 -7 2 -13 -4
-14 -12 0 -8 -5 -15 -12 -15 -6 0 -15 -3 -19 -7 -3 -4 3 -5 16 -3 15 3 20 0
17 -9 -3 -8 0 -19 6 -26 7 -7 0 -5 -14 4 -22 14 -26 14 -26 1 0 -8 6 -15 14
-15 16 0 17 -16 1 -26 -7 -4 -8 -3 -4 4 4 7 2 12 -3 12 -6 0 -11 -9 -11 -21 0
-13 4 -18 13 -13 9 6 9 4 -1 -8 -7 -9 -11 -21 -10 -28 2 -7 -4 -15 -12 -17 -9
-3 -11 -1 -5 4 14 11 15 40 0 40 -6 0 -11 -10 -11 -21 1 -15 -4 -20 -19 -18
-16 2 -17 1 -5 -7 8 -6 11 -11 6 -11 -5 0 -2 -7 5 -16 12 -15 11 -16 -11 -10
-20 6 -22 5 -8 -4 10 -6 15 -17 11 -27 -4 -11 -3 -14 5 -9 8 5 10 1 5 -10 -4
-11 -8 -13 -11 -6 -5 15 -29 16 -38 0 -5 -7 -2 -9 9 -5 8 3 18 0 21 -8 3 -10
0 -12 -12 -9 -16 5 -16 4 -1 -8 14 -11 14 -15 2 -26 -7 -7 -10 -18 -7 -24 4
-7 2 -8 -4 -4 -9 5 -9 13 -2 26 8 15 7 18 -3 14 -18 -7 -16 -42 3 -54 11 -7
11 -10 2 -10 -7 0 -10 -4 -7 -10 3 -6 -1 -7 -10 -3 -14 5 -14 8 -3 15 9 7 8 8
-5 4 -10 -3 -21 -6 -23 -6 -2 0 -4 -5 -4 -11 0 -5 4 -8 9 -4 5 3 12 1 15 -4 4
-5 -2 -12 -11 -14 -17 -4 -17 -5 0 -6 21 -1 22 -14 2 -31 -21 -18 -19 -35 3
-19 15 12 16 12 6 -1 -6 -8 -10 -23 -9 -33 2 -9 -1 -15 -6 -11 -5 3 -7 9 -4
14 3 4 -2 10 -10 13 -15 6 -11 -16 8 -41 7 -9 7 -16 0 -23 -8 -8 -13 -7 -18 2
-5 8 -4 10 3 5 16 -10 14 5 -3 28 -14 18 -14 17 -11 -10 2 -16 6 -36 8 -44 2
-10 -3 -14 -14 -12 -12 2 -16 -2 -12 -13 3 -8 11 -12 17 -8 6 4 8 0 4 -9 -3
-9 0 -21 6 -27 6 -6 8 -11 4 -11 -3 0 -15 9 -25 20 -19 20 -19 20 -17 -2 1
-13 7 -22 12 -21 5 1 8 -8 7 -20 -1 -12 -3 -32 -3 -44 -1 -13 -6 -23 -12 -23
-5 0 -8 3 -5 8 2 4 -2 18 -10 32 -7 14 -13 21 -14 17 0 -5 5 -18 11 -29 10
-18 9 -20 -7 -14 -18 6 -18 5 0 -9 25 -19 28 -39 9 -62 -8 -10 -12 -12 -8 -6
12 25 13 50 2 50 -8 0 -12 -20 -12 -54 0 -43 3 -52 15 -48 11 4 10 1 -2 -8
-14 -11 -15 -16 -5 -27 9 -9 9 -11 0 -6 -17 9 -17 -452 0 -473 8 -10 8 -13 1
-8 -8 5 -12 -6 -11 -32 1 -23 5 -37 10 -34 6 4 7 1 1 -8 -5 -8 -9 -26 -10 -41
0 -22 3 -25 17 -17 10 5 24 9 31 8 7 0 3 -4 -9 -9 -13 -5 -23 -14 -23 -20 0
-6 -6 -8 -12 -4 -7 4 -5 -2 5 -13 15 -17 16 -26 8 -42 -9 -16 -8 -22 6 -29 10
-5 24 -7 31 -5 15 6 16 -13 0 -23 -7 -4 -8 -3 -4 4 5 8 1 10 -10 5 -14 -5 -13
-8 7 -18 l23 -13 -30 -27 c-22 -21 -23 -25 -7 -16 32 16 50 14 27 -5 -13 -11
-14 -14 -3 -11 9 3 16 -1 16 -8 0 -7 -8 -12 -19 -10 -10 2 -16 0 -13 -5 7 -12
35 -6 45 11 7 10 9 8 7 -8 0 -12 -5 -19 -9 -17 -4 3 -5 -9 -2 -26 4 -20 3 -30
-5 -30 -7 0 -9 -5 -6 -11 5 -6 13 -3 22 10 8 12 12 25 9 29 -3 5 0 9 7 9 7 0
13 -8 13 -18 0 -10 -3 -17 -6 -16 -3 1 -5 -1 -5 -4 0 -3 -7 -14 -15 -24 -14
-17 -13 -17 10 -11 19 6 21 5 10 -3 -8 -6 -11 -11 -6 -11 5 0 3 -6 -3 -14 -9
-11 -9 -16 0 -22 8 -4 9 -3 5 4 -5 8 -1 10 10 5 10 -4 13 -8 6 -11 -12 -4 15
-72 30 -72 4 0 8 -4 8 -10 0 -21 -17 -9 -31 22 -13 26 -17 29 -22 14 -4 -10
-3 -15 3 -11 14 9 12 -9 -2 -23 -9 -9 -9 -12 0 -12 7 0 12 6 13 13 0 6 7 -1
14 -18 8 -16 14 -24 15 -16 0 8 3 11 7 8 3 -4 -2 -17 -13 -29 -13 -15 -14 -18
-3 -10 14 10 18 10 23 -3 3 -9 2 -13 -3 -10 -5 3 -13 0 -17 -6 -4 -7 -3 -9 3
-6 12 8 59 -30 49 -40 -3 -4 -13 2 -20 13 -12 16 -17 17 -28 6 -11 -11 -10
-12 6 -6 13 5 17 4 12 -4 -4 -7 -2 -12 5 -12 9 0 9 -3 0 -14 -8 -10 -9 -16 -1
-21 6 -4 9 -1 8 6 -4 16 13 21 32 9 13 -8 13 -11 1 -22 -9 -8 -11 -9 -7 -1 3
6 1 15 -5 19 -7 4 -9 3 -5 -4 3 -6 2 -13 -3 -17 -12 -7 -3 -35 11 -35 5 0 6 4
3 10 -3 5 1 10 9 10 12 0 14 -5 6 -25 -6 -15 -6 -26 1 -30 5 -4 6 -11 3 -17
-4 -6 -2 -8 3 -5 16 10 24 -18 10 -33 -9 -10 -9 -11 1 -6 8 5 19 -4 30 -23 9
-17 21 -31 26 -31 5 0 4 6 -2 13 -8 9 -8 17 0 27 8 12 9 12 4 -2 -3 -10 -1
-20 4 -23 15 -9 -1 -34 -18 -28 -14 4 -15 3 -2 -5 8 -6 18 -8 23 -5 4 2 19 -7
32 -21 13 -14 21 -26 17 -26 -4 0 -13 -9 -19 -19 -11 -17 -10 -19 7 -16 13 2
20 -2 20 -11 0 -9 -5 -12 -12 -8 -6 4 -8 3 -5 -3 4 -6 19 -9 34 -6 26 3 26 3
6 -6 -32 -14 -26 -46 9 -48 15 0 25 3 22 8 -3 5 2 6 10 3 21 -8 -3 -33 -27
-28 -16 3 -17 1 -6 -12 6 -8 14 -12 17 -9 3 3 12 -1 21 -8 14 -11 14 -10 2 6
-7 9 -9 17 -3 17 14 0 23 -28 12 -35 -6 -4 -3 -16 7 -30 10 -12 22 -21 27 -18
4 3 3 9 -4 13 -7 4 -8 10 -3 13 5 3 15 -3 22 -15 7 -11 8 -17 2 -14 -5 4 -9
-2 -8 -14 1 -10 7 -22 14 -24 8 -3 10 1 6 12 -8 22 1 13 16 -16 11 -21 10 -22
-15 -18 -14 3 -23 2 -19 -2 7 -7 12 -8 40 -11 9 -1 12 -7 9 -19 -5 -13 -4 -14
4 -3 6 8 8 21 5 30 -2 9 3 5 11 -9 8 -14 15 -29 15 -35 1 -5 -3 -5 -7 2 -6 9
-11 7 -20 -7 -12 -20 -3 -21 43 -5 20 8 20 8 0 -8 -11 -8 -17 -19 -12 -23 4
-4 7 -2 7 4 0 7 5 12 11 12 5 0 7 -4 4 -10 -3 -5 -1 -10 5 -10 6 0 18 -7 27
-15 8 -8 19 -13 24 -9 5 3 9 2 8 -3 -4 -21 2 -33 15 -33 8 0 17 -4 20 -9 4 -5
-3 -7 -14 -4 -11 3 -25 14 -31 25 -5 10 -14 16 -18 13 -5 -3 -11 2 -15 10 -3
8 -13 15 -23 14 -14 0 -15 -2 -3 -6 8 -3 19 -12 23 -20 5 -7 12 -11 18 -8 5 4
9 1 9 -4 0 -6 -5 -11 -12 -11 -27 0 9 -16 45 -19 4 -1 7 -6 7 -12 0 -5 -6 -7
-13 -3 -6 4 -4 -2 6 -13 9 -11 14 -24 10 -29 -5 -5 -4 -6 1 -2 5 4 18 3 30 -3
13 -7 10 -2 -8 13 -20 17 -25 27 -18 32 7 4 12 1 12 -8 0 -9 5 -16 10 -16 6 0
10 5 10 12 0 28 16 -10 19 -46 1 -4 8 -6 16 -3 8 4 17 1 21 -5 5 -7 2 -8 -6
-3 -10 6 -12 4 -7 -8 3 -10 2 -17 -2 -17 -5 0 -12 6 -14 13 -4 9 -6 9 -6 0 -2
-22 20 -25 42 -6 19 15 20 16 8 1 -7 -10 -9 -18 -3 -18 5 0 12 -9 15 -20 3
-11 13 -20 22 -20 9 0 13 5 10 10 -4 6 -11 7 -17 4 -7 -5 -8 -2 -3 5 5 9 15 5
36 -15 15 -15 26 -31 23 -35 -2 -4 0 -10 5 -13 5 -4 12 2 14 11 4 17 5 17 6 0
0 -10 -9 -22 -21 -27 -20 -9 -19 -9 8 -5 22 4 34 1 44 -12 12 -15 12 -16 0 -6
-17 16 -30 17 -30 3 0 -5 6 -9 13 -7 6 1 11 -3 10 -8 -1 -6 7 -11 17 -11 10 0
18 3 17 6 -1 3 3 6 8 8 6 1 11 -2 11 -8 3 -23 5 -24 15 -10 8 12 10 12 7 1 -2
-8 -12 -15 -21 -17 -9 -1 -15 1 -12 6 3 4 -5 6 -17 2 -21 -5 -21 -6 -2 -12 10
-4 36 -6 56 -6 29 2 35 -1 26 -11 -13 -16 -4 -17 23 -3 10 6 19 8 19 6 0 -3
-10 -11 -22 -17 -18 -9 -24 -8 -34 6 -12 16 -13 16 -11 -3 1 -16 8 -19 37 -19
50 1 63 -9 49 -36 -7 -12 -8 -19 -4 -15 4 4 21 0 37 -8 16 -8 33 -12 38 -9 8
5 26 -32 22 -47 -1 -5 4 -7 11 -5 6 1 11 -4 9 -11 -1 -8 2 -11 8 -7 6 3 8 10
5 15 -3 4 2 10 10 14 8 3 17 0 21 -6 5 -7 2 -8 -7 -3 -8 5 -4 -3 9 -17 12 -13
19 -29 15 -33 -5 -5 -1 -4 8 3 21 15 32 3 16 -17 -10 -14 -10 -14 5 -3 14 11
18 10 27 -5 6 -11 11 -13 11 -5 0 7 4 11 9 8 5 -4 7 4 5 16 -4 21 -3 20 7 -2
11 -24 17 -45 18 -65 1 -5 5 -3 11 5 6 9 5 20 -3 29 -10 12 -9 13 3 6 29 -18
49 -39 44 -47 -3 -4 -1 -8 4 -8 6 0 13 7 16 16 3 8 2 13 -3 10 -5 -3 -15 2
-22 12 -12 15 -12 16 2 5 10 -8 19 -9 27 -3 7 6 10 7 7 4 -3 -4 1 -14 8 -22 6
-9 7 -13 1 -9 -6 3 -11 0 -11 -8 0 -11 4 -12 14 -4 10 9 13 8 13 -4 0 -8 -6
-17 -12 -20 -7 -2 -1 -4 13 -3 25 1 25 2 11 24 -8 12 -12 26 -8 29 4 4 9 -3
13 -15 6 -23 23 -31 23 -10 0 7 7 2 16 -10 13 -19 18 -21 32 -10 11 9 13 9 9
1 -9 -14 26 -36 38 -25 5 4 5 1 1 -6 -5 -8 -13 -9 -25 -3 -13 7 -18 6 -18 -4
0 -8 4 -12 9 -9 5 3 20 -1 33 -10 22 -15 25 -14 44 12 17 23 19 24 18 7 -1
-11 3 -19 11 -18 6 2 12 -2 12 -7 0 -14 -13 -13 -29 2 -11 11 -11 9 0 -8 10
-18 16 -20 30 -11 10 6 16 14 14 17 -2 4 3 7 11 7 10 0 8 -7 -8 -25 l-23 -25
30 19 30 18 -20 -24 -20 -24 23 16 c30 20 54 14 75 -20 9 -15 17 -21 17 -14 0
8 5 10 13 6 7 -4 9 -3 4 2 -5 5 -14 9 -20 9 -5 0 -12 7 -14 15 -4 13 -3 13 6
0 6 -8 11 -11 11 -7 0 4 9 3 19 -3 14 -7 21 -6 24 3 3 7 6 6 6 -5 1 -9 -5 -19
-11 -21 -10 -4 -10 -6 -1 -6 6 -1 18 8 26 20 14 19 16 19 24 4 6 -9 13 -16 16
-16 21 3 27 0 21 -10 -5 -8 -9 -8 -14 1 -5 8 -9 7 -14 -6 -3 -9 -4 -19 -1 -22
3 -3 5 0 5 8 0 10 4 10 17 -1 11 -10 14 -10 9 -1 -5 9 -1 11 16 8 13 -3 25 -5
28 -5 3 -1 -1 -5 -8 -10 -11 -7 -10 -9 3 -14 9 -4 13 -3 10 3 -3 5 11 8 34 7
22 -1 37 1 35 5 -9 14 2 9 25 -11 23 -20 66 -18 54 3 -4 8 -2 7 7 -1 7 -6 18
-9 25 -7 7 3 16 0 20 -6 5 -8 11 -8 23 1 11 9 11 6 -2 -7 -13 -13 -20 -15 -23
-6 -6 16 -23 15 -23 -2 0 -18 52 -16 66 3 9 11 12 12 19 1 5 -9 4 -11 -3 -6
-7 4 -12 3 -12 -2 0 -5 36 -9 80 -9 56 0 77 3 73 11 -4 6 0 5 9 -2 20 -16 422
-16 411 1 -4 6 -1 7 8 1 23 -15 108 -12 114 4 4 12 8 12 22 1 14 -12 16 -12 8
0 -6 11 -3 13 13 9 27 -7 27 -5 5 18 -17 17 -17 18 0 11 10 -4 23 -7 28 -7 6
0 8 -4 5 -8 -3 -5 1 -9 9 -9 8 0 12 4 9 9 -3 4 -2 13 1 18 4 7 20 3 43 -11
l37 -21 -19 21 c-12 13 -14 21 -7 21 7 0 10 4 7 9 -3 4 4 8 17 7 13 -1 21 4
20 12 -4 18 14 15 21 -4 7 -18 0 -34 -15 -34 -6 0 -8 4 -5 9 4 5 -2 8 -11 7
-24 -4 -23 -18 2 -22 25 -4 48 15 41 33 -3 8 -1 11 4 8 13 -8 13 8 0 21 -7 7
-6 11 4 11 8 0 13 -9 11 -23 -1 -12 2 -28 7 -36 7 -9 8 -8 4 6 -5 13 -2 17 9
13 8 -4 17 -1 21 5 4 6 3 8 -3 5 -6 -4 -13 0 -16 8 -4 8 -1 12 6 10 38 -11 77
-13 77 -4 0 6 -4 8 -9 4 -5 -3 -13 0 -17 6 -4 7 -3 9 4 5 6 -3 13 -2 17 4 3 5
12 10 18 10 7 0 6 -4 -3 -10 -16 -10 -13 -11 31 -14 19 -1 25 2 22 11 -4 10
-9 11 -19 2 -12 -10 -13 -9 -8 5 7 18 34 22 34 6 0 -7 6 -7 19 0 14 7 21 6 24
-3 4 -9 6 -9 6 0 1 7 8 10 19 7 10 -4 13 -2 7 3 -19 16 -13 28 16 29 16 1 26
-3 22 -8 -3 -6 4 -5 16 1 11 7 21 14 21 17 0 3 -4 3 -8 0 -4 -2 -14 0 -22 6
-12 8 -11 9 3 4 15 -5 17 -2 12 17 -3 13 3 8 14 -13 11 -19 20 -29 21 -22 0 7
5 10 12 6 7 -4 8 -3 4 5 -4 6 -13 8 -19 5 -7 -4 -9 -4 -5 1 4 4 2 15 -5 24
-11 14 -10 14 6 2 15 -12 20 -12 27 -2 5 9 13 10 21 5 8 -5 23 -10 33 -11 28
-5 32 -11 18 -33 -8 -14 -9 -21 0 -26 6 -4 8 -3 5 3 -4 6 0 16 8 23 8 7 12 17
8 23 -3 6 -1 7 5 3 9 -5 9 -13 2 -27 -6 -10 -7 -20 -3 -21 4 0 13 -2 18 -3 6
-2 15 -3 20 -4 6 -1 3 -6 -5 -12 -13 -9 -13 -10 1 -6 9 3 22 0 29 -6 7 -7 5 1
-5 16 -10 15 -15 30 -12 33 3 3 8 -4 12 -15 3 -12 11 -18 17 -15 7 4 8 2 4 -4
-4 -6 2 -19 13 -29 11 -9 18 -20 15 -24 -2 -4 5 -5 15 -2 13 3 18 11 14 21 -4
10 -3 14 2 10 4 -4 8 -18 9 -30 1 -13 11 -28 26 -35 21 -11 27 -10 38 5 11 13
13 14 12 2 -4 -30 0 -51 9 -46 5 3 8 14 6 24 -1 9 0 11 2 4 3 -7 8 -10 12 -8
4 3 8 -1 8 -9 0 -8 -4 -12 -9 -9 -4 3 -8 1 -8 -4 0 -6 23 -9 53 -7 73 4 74 4
55 15 -9 6 -15 18 -14 28 2 13 12 17 46 15 27 -1 38 2 30 7 -8 5 -18 6 -22 4
-4 -3 -8 -1 -8 4 0 6 7 13 16 16 24 9 31 7 14 -4 -11 -8 -8 -9 14 -6 16 3 31
8 35 12 3 4 -2 5 -11 1 -16 -6 -35 20 -23 31 3 3 5 0 5 -6 0 -7 9 -12 20 -12
11 0 20 4 20 8 0 5 7 17 16 28 8 10 13 13 9 7 -3 -7 -1 -21 5 -30 11 -17 11
-17 6 1 -5 14 -2 17 11 12 10 -4 14 -4 11 0 -4 4 -3 15 2 25 7 12 6 19 -3 23
-8 4 -7 5 3 5 30 -2 41 1 35 11 -4 6 1 7 11 3 16 -6 15 -7 -2 -20 -10 -7 -21
-13 -25 -13 -9 0 -5 -27 6 -37 4 -4 5 -3 2 4 -8 13 20 46 32 39 12 -8 9 28 -3
36 -8 6 -7 8 1 8 7 0 17 -8 22 -17 9 -15 10 -15 11 -3 0 9 -6 22 -12 29 -11
10 -9 11 6 5 15 -6 17 -4 11 7 -4 8 -4 11 0 6 5 -4 20 3 34 15 14 13 19 15 12
5 -12 -15 -11 -17 7 -14 11 2 27 8 34 15 8 6 18 8 22 4 4 -4 6 0 4 8 -2 8 3
14 10 12 8 -1 11 2 7 8 -3 5 -1 10 6 10 7 0 9 3 6 6 -4 4 -13 2 -20 -4 -8 -7
-18 -8 -22 -4 -5 4 -5 1 0 -7 6 -10 4 -12 -5 -6 -9 6 -11 4 -5 -6 6 -11 5 -12
-5 -2 -12 11 -11 15 5 27 11 7 31 13 46 12 15 -1 27 0 27 3 -2 18 3 31 11 31
6 0 8 -10 6 -21 -3 -12 -1 -18 3 -15 4 4 7 13 7 19 1 7 7 11 14 9 7 -1 10 2 6
8 -3 6 -11 7 -17 4 -6 -4 -6 0 1 13 6 11 8 23 5 26 -3 3 0 5 8 4 7 -2 13 -7
13 -12 0 -6 -4 -9 -10 -7 -5 2 -4 -2 3 -10 11 -11 14 -10 22 2 6 8 8 20 6 27
-3 6 2 14 10 17 9 3 12 11 8 17 -4 8 -3 9 5 5 6 -4 9 -11 7 -15 -3 -4 0 -13 6
-21 8 -13 9 -12 5 2 -8 23 3 30 22 15 14 -11 14 -10 2 6 -12 16 -9 22 12 18 5
-1 6 3 2 9 -3 6 -12 7 -18 4 -7 -4 -8 -3 -4 1 12 13 37 15 37 2 0 -5 2 -8 5
-5 3 3 1 17 -4 31 -9 23 -8 25 7 20 14 -6 15 -4 4 9 -10 13 -10 18 -1 24 7 4
9 3 5 -4 -3 -6 -2 -14 4 -17 8 -5 8 -11 1 -19 -8 -9 -7 -13 4 -13 8 0 13 3 10
5 -3 3 3 10 12 17 13 9 13 14 3 20 -9 6 -11 4 -5 -5 5 -8 4 -11 -3 -7 -7 5 -7
14 1 31 l12 24 12 -26 c6 -15 12 -21 12 -14 1 7 5 11 9 8 5 -3 9 1 9 9 0 10
-4 12 -12 5 -7 -6 -11 -3 -11 9 0 13 5 17 16 13 12 -5 13 -3 3 9 -10 13 -10
16 2 16 8 0 12 -4 9 -9 -3 -4 0 -8 6 -8 6 0 8 -5 4 -12 -4 -6 -3 -8 3 -5 5 4
9 22 8 42 -2 19 1 37 5 40 5 3 7 -6 4 -20 -3 -19 -1 -23 11 -19 8 3 12 11 8
17 -4 6 0 8 10 4 12 -4 14 -2 10 11 -4 9 -11 20 -16 23 -5 3 -1 9 8 12 9 4 13
3 10 -3 -3 -6 -1 -10 5 -10 6 0 8 -4 5 -10 -3 -5 -1 -10 4 -10 6 0 11 5 11 11
0 5 5 7 12 3 7 -4 8 -3 4 5 -4 6 -11 9 -16 6 -16 -10 -4 25 17 49 16 18 18 27
10 37 -10 11 -9 11 5 1 12 -10 18 -10 23 -1 6 8 10 7 17 -2 7 -10 8 -8 5 9 -3
15 0 22 9 22 8 0 14 -5 14 -12 0 -6 2 -9 5 -6 10 10 -7 38 -19 31 -6 -4 -5 1
3 11 8 9 20 15 28 12 8 -4 11 -1 8 5 -4 6 -1 9 6 7 8 -1 16 2 18 7 2 6 11 15
20 22 14 10 14 11 -3 10 -11 -1 -20 5 -21 16 -2 9 1 15 6 11 5 -3 6 -11 2 -17
-4 -7 1 -5 12 3 10 8 21 14 24 13 3 -1 4 8 3 19 -4 20 -2 21 15 8 16 -13 17
-13 6 1 -10 12 -10 18 -1 27 9 9 9 15 -1 24 -12 11 -13 9 -7 -7 6 -15 4 -17
-5 -8 -13 13 -3 37 12 28 13 -9 11 9 -3 25 -11 12 -10 12 3 2 22 -16 42 4 28
30 -7 12 -6 18 1 18 6 0 9 4 5 9 -3 5 -1 12 5 16 6 4 7 11 4 17 -4 7 -2 8 5 4
9 -6 9 -12 -1 -24 -7 -10 -8 -14 -4 -10 5 4 16 2 25 -5 14 -10 14 -10 3 5 -9
11 -9 18 -3 23 16 9 11 364 -5 358 -7 -3 -11 -10 -8 -18 3 -7 -2 -15 -12 -19
-14 -5 -15 -4 -4 9 7 8 9 15 5 15 -4 0 -2 7 5 15 7 8 9 15 5 15 -4 0 -2 7 5
15 9 10 9 15 1 15 -6 0 -11 -5 -11 -11 0 -5 -6 -7 -12 -3 -9 5 -9 2 1 -9 9
-11 10 -17 2 -17 -9 0 -15 14 -9 23 1 1 -4 11 -10 23 -8 16 -8 24 1 34 9 10 9
11 0 6 -7 -4 -13 -2 -13 3 0 6 -3 10 -7 10 -17 -3 -33 1 -32 9 4 25 -2 42 -13
36 -10 -6 -10 -5 -1 8 7 8 10 18 6 22 -4 4 -1 11 7 16 9 6 10 10 3 10 -6 0
-14 -4 -18 -10 -3 -5 -13 -6 -22 -3 -10 4 -14 2 -9 -5 3 -6 2 -13 -3 -16 -5
-4 -8 2 -6 11 1 10 10 17 19 16 11 0 15 4 12 13 -3 8 0 14 6 14 6 0 8 3 5 6
-4 4 -13 1 -22 -6 -9 -7 -18 -10 -22 -6 -3 3 -1 6 5 6 7 0 12 5 12 11 0 5 -5
7 -12 3 -7 -4 -8 -3 -4 4 4 6 13 9 20 6 8 -3 17 0 22 7 4 7 3 10 -4 5 -6 -3
-16 2 -22 13 -7 13 -7 22 0 26 10 6 14 -1 10 -20 -1 -5 5 -4 12 3 11 11 10 16
-5 27 -18 13 -17 14 2 20 22 7 26 16 14 29 -12 11 -12 37 0 29 7 -4 8 0 3 12
-5 14 -4 15 7 7 9 -8 17 -8 27 0 13 8 12 9 -2 5 -9 -3 -19 1 -22 9 -3 9 -1 12
4 9 13 -8 13 1 -1 27 -8 16 -8 19 1 13 9 -5 10 -1 5 16 -7 23 -7 24 9 4 8 -11
16 -15 16 -10 0 6 5 3 11 -5 9 -12 10 -12 5 4 -4 10 0 29 8 40 13 20 12 22 -7
24 -17 1 -19 -1 -7 -8 11 -7 11 -10 2 -10 -7 0 -11 -4 -8 -8 2 -4 0 -14 -6
-22 -8 -12 -9 -12 -4 3 3 10 0 17 -7 17 -8 0 -6 4 3 10 8 5 11 10 6 10 -5 0
-4 6 1 12 5 7 9 33 8 58 -1 25 0 39 2 32 3 -6 10 -9 15 -6 7 4 8 2 4 -5 -14
-22 -16 -60 -5 -67 8 -5 9 -3 4 6 -4 7 -2 16 6 21 11 7 11 9 1 9 -10 0 -10 5
-2 20 9 16 7 24 -5 36 -8 9 -12 20 -9 26 4 6 0 14 -7 19 -9 6 -10 9 -2 9 6 0
15 -4 18 -10 10 -16 23 -12 35 10 9 16 8 18 -5 14 -8 -3 -12 -11 -8 -18 4 -6
-2 -4 -13 4 -10 8 -21 16 -24 18 -3 2 4 2 14 0 38 -6 43 29 45 319 1 208 -2
280 -11 291 -10 13 -10 14 0 8 9 -6 11 11 8 76 -3 46 -5 86 -5 90 -1 7 -41 23
-51 21 -3 -1 -7 7 -7 18 -1 10 2 19 7 19 5 0 7 12 5 28 -2 18 -8 27 -20 25
-11 -1 -14 2 -7 9 7 7 18 6 33 -2 21 -10 22 -10 7 3 -10 8 -15 17 -12 20 10
10 -15 45 -37 52 -20 7 -20 7 -2 21 17 13 17 15 1 28 -24 18 -22 25 5 19 19
-4 18 -2 -5 12 -34 19 -36 29 -6 20 20 -5 21 -4 6 5 -10 6 -18 16 -18 21 0 6
5 7 10 4 6 -3 10 -1 10 5 0 7 -6 10 -14 7 -9 -4 -16 3 -20 19 -4 16 -11 22
-19 17 -13 -8 12 28 28 39 7 5 6 8 0 8 -6 0 -17 -6 -24 -12 -11 -11 -12 -9 -7
9 4 12 2 24 -3 27 -6 4 -8 13 -4 21 3 8 0 15 -7 15 -6 0 -8 -4 -5 -10 3 -5 2
-10 -3 -10 -11 0 -25 30 -17 38 3 3 5 0 5 -7 0 -7 4 -10 10 -6 5 3 7 12 4 20
-4 8 -10 12 -15 9 -5 -3 -6 2 -3 10 3 9 11 13 18 9 8 -4 8 -2 -1 7 -6 7 -10
18 -9 24 2 6 1 8 -1 3 -3 -4 -10 -4 -16 0 -8 4 -8 1 1 -9 10 -12 9 -18 -3 -28
-10 -9 -15 -9 -15 -1 0 6 5 11 11 11 8 0 7 6 -2 17 -11 12 -11 17 -2 20 8 3 4
13 -12 29 -24 24 -25 61 -1 47 6 -3 3 3 -7 14 -12 14 -14 23 -7 26 6 3 5 4 -2
2 -7 -1 -12 -7 -11 -13 2 -6 -4 -9 -12 -5 -12 4 -13 9 -4 19 6 8 8 14 4 14 -4
0 -4 6 1 13 5 7 -1 1 -13 -13 l-23 -25 13 34 c10 27 10 35 -1 38 -6 3 -9 10
-5 16 4 7 -1 6 -10 -2 -20 -16 -23 -2 -4 18 9 11 9 13 0 7 -17 -9 -17 6 0 23
10 10 9 11 -5 6 -24 -9 -35 20 -17 43 11 14 9 13 -9 -2 -12 -11 -22 -14 -22
-8 0 7 -5 11 -11 10 -6 -2 -14 4 -16 12 -4 12 -3 12 5 1 7 -10 11 -10 17 -1 8
13 -14 32 -27 24 -5 -3 -11 2 -14 10 -3 9 -10 13 -15 10 -5 -3 -6 2 -2 12 5
15 7 14 17 -3 13 -22 30 -24 48 -3 11 12 11 12 -4 2 -13 -11 -19 -9 -32 9 -8
12 -12 27 -9 33 3 6 -6 0 -22 -14 l-28 -25 18 28 c10 16 13 27 6 27 -6 0 -11
5 -11 11 0 5 4 8 9 4 5 -3 12 -1 16 4 3 6 -6 8 -22 5 -25 -4 -26 -3 -11 9 15
12 14 15 -15 31 -22 12 -26 12 -13 2 18 -15 18 -15 -1 -13 -22 1 -29 37 -7 37
8 0 14 5 14 11 0 5 -4 7 -10 4 -5 -3 -15 -3 -22 1 -7 5 -5 11 8 21 18 13 17
14 -9 9 -24 -4 -27 -2 -23 19 3 15 0 24 -7 22 -6 -1 -11 4 -12 11 0 6 -3 12
-7 12 -5 0 -13 0 -19 0 -7 0 0 -10 15 -21 15 -12 25 -23 23 -26 -3 -2 -17 8
-33 22 -26 24 -31 35 -36 77 -1 9 -6 14 -12 11 -5 -4 -7 1 -2 12 5 15 4 16 -9
5 -15 -12 -15 -14 -1 -22 9 -5 16 -14 16 -21 0 -8 -3 -8 -8 -2 -4 6 -20 21
-36 33 -16 12 -22 22 -15 22 11 0 11 2 -1 9 -8 6 -19 7 -25 5 -5 -3 1 4 15 17
23 20 23 21 4 15 -16 -5 -23 -2 -27 13 -2 11 0 25 7 32 8 10 7 10 -6 0 -15
-11 -18 -11 -18 -1 0 8 -3 10 -6 7 -4 -4 -1 -13 6 -22 7 -8 8 -15 3 -15 -5 0
-17 18 -27 40 -10 22 -22 40 -27 40 -6 0 -8 -4 -5 -9 3 -5 -1 -14 -9 -21 -10
-9 -15 -9 -15 -1 0 6 5 11 11 11 8 0 7 6 -2 17 -10 11 -10 14 -1 9 18 -10 15
19 -3 34 -12 10 -18 10 -30 0 -12 -10 -16 -9 -21 5 -4 10 -1 21 7 26 11 7 11
9 1 9 -7 0 -11 4 -7 9 3 5 0 13 -7 17 -7 4 -10 4 -6 -1 4 -4 2 -15 -5 -23 -10
-13 -9 -14 3 -7 12 7 13 6 3 -7 -7 -8 -9 -19 -5 -23 4 -5 1 -5 -6 -1 -7 5 -11
11 -8 14 3 3 0 12 -7 20 -6 9 -7 13 -2 10 6 -4 12 2 12 14 2 19 2 19 -16 -1
-16 -18 -20 -19 -25 -6 -3 9 -11 13 -17 9 -8 -5 -9 -3 -3 7 4 8 9 24 10 36 l1
22 -28 -19 c-21 -16 -27 -17 -25 -5 1 8 6 18 11 22 4 4 5 2 0 -6 -5 -10 -4
-12 4 -7 19 12 2 27 -19 16 -13 -7 -21 -7 -25 0 -6 9 0 13 16 12 3 -1 6 5 6
13 0 10 -6 11 -24 4 -32 -12 -30 -12 -36 13 -5 18 -8 19 -22 8 -9 -7 -15 -9
-14 -4 3 13 -23 64 -32 64 -5 0 -6 -6 -3 -14 7 -18 -12 -30 -22 -15 -4 8 -3 9
4 5 19 -11 14 2 -8 24 -11 11 -23 19 -27 18 -5 -2 -9 8 -11 21 -3 18 -8 22
-28 18 -13 -2 -27 -1 -29 4 -3 4 -15 6 -27 4 -11 -3 -18 -2 -15 2 4 3 2 15 -4
27 -10 20 -10 20 5 2 13 -16 16 -17 16 -4 0 21 -24 30 -40 15 -10 -9 -11 -7
-5 13 5 19 4 21 -4 10 -10 -13 -11 -13 -11 0 0 12 -2 12 -9 2 -6 -11 -10 -10
-16 5 -5 10 -7 25 -6 33 1 12 0 13 -7 1 -11 -15 -36 -6 -27 10 4 5 1 9 -4 9
-6 0 -11 -7 -11 -15 0 -8 4 -15 8 -15 5 0 17 -7 28 -16 10 -8 13 -13 6 -9 -7
4 -19 1 -27 -5 -11 -9 -15 -9 -15 -1 0 6 5 11 12 11 6 0 3 6 -8 14 -15 11 -22
12 -33 3 -9 -7 -12 -8 -8 -1 8 14 -25 41 -46 38 -9 -1 -20 3 -24 8 -3 6 -1 8
5 4 5 -3 13 0 15 6 4 10 6 10 6 0 1 -7 6 -10 12 -6 8 5 8 9 -1 14 -15 9 -50 1
-50 -12 0 -5 -5 -6 -11 -3 -6 4 3 17 22 31 18 13 28 24 22 24 -6 0 -16 -7 -23
-15 -7 -9 -15 -13 -18 -11 -2 3 -14 1 -24 -5 -23 -12 -49 3 -27 16 8 5 10 4 5
-3 -4 -7 -3 -12 3 -12 6 0 15 10 22 21 9 17 8 20 -3 13 -26 -17 -88 -25 -88
-12 0 5 9 7 19 3 23 -7 33 5 21 25 -6 10 -12 11 -22 3 -20 -15 -50 -24 -43
-13 9 14 -8 12 -25 -2 -8 -7 -6 -3 3 9 14 16 15 23 6 29 -7 4 -10 3 -6 -3 4
-6 0 -14 -9 -17 -21 -8 -24 -8 -24 5 0 5 4 8 8 5 5 -3 9 1 9 9 0 8 -4 12 -8 9
-4 -2 -9 -1 -12 3 -2 5 -2 2 -1 -4 2 -7 -4 -13 -12 -13 -9 0 -12 -5 -8 -12 4
-7 3 -8 -5 -4 -9 6 -9 11 0 22 9 11 9 14 -1 14 -9 0 -9 4 1 18 13 16 13 16 -5
2 -11 -8 -21 -14 -23 -12 -5 4 -2 -13 4 -18 4 -3 3 1 -2 9 -5 10 -4 12 4 7 16
-10 4 -26 -15 -19 -8 3 -14 15 -12 26 2 11 -4 22 -12 24 -12 4 -12 2 -2 -5 10
-7 9 -12 -4 -23 -12 -9 -15 -10 -10 -1 4 7 2 12 -4 12 -6 0 -8 5 -4 12 4 6 3
8 -4 4 -5 -3 -12 -1 -14 6 -3 7 -7 5 -11 -6 -5 -12 -3 -15 6 -10 8 5 7 2 -2
-9 -15 -19 -26 -23 -15 -5 5 8 2 9 -10 5 -9 -4 -27 0 -40 8 -12 8 -25 13 -28
10 -2 -3 -5 2 -5 10 0 11 4 12 11 5 5 -5 14 -10 20 -10 5 0 -1 9 -14 20 -23
20 -41 19 -36 -3 1 -7 1 -9 -1 -4 -3 4 -10 4 -15 1 -7 -4 -8 -2 -4 4 5 8 0 12
-13 12 -12 0 -20 3 -18 8 1 4 -2 7 -8 7 -5 0 -9 -2 -8 -6 1 -3 -25 -5 -57 -5
-41 1 -61 5 -65 14 -4 12 -8 12 -20 2 -9 -7 -18 -10 -22 -6 -3 3 -1 6 6 6 8 0
9 5 2 18 -9 17 -32 18 -302 19 -216 2 -297 -1 -308 -10 -12 -9 -13 -9 -7 1 5
8 -2 12 -23 12 -17 0 -31 -5 -31 -11 0 -5 6 -7 13 -3 7 4 9 3 4 -2 -5 -5 -12
-9 -15 -9 -4 0 -14 -4 -22 -9 -12 -7 -13 -6 -2 5 6 7 12 16 12 19 0 9 -112 6
-117 -4z m677 -6 c0 -5 -2 -10 -4 -10 -3 0 -8 5 -11 10 -3 6 -1 10 4 10 6 0
11 -4 11 -10z m40 0 c0 -5 -5 -10 -11 -10 -5 0 -7 5 -4 10 3 6 8 10 11 10 2 0
4 -4 4 -10z m55 -11 c11 -16 1 -19 -13 -3 -7 8 -8 14 -3 14 5 0 13 -5 16 -11z
m-751 -16 c11 -2 22 -6 25 -10 3 -3 -4 -3 -16 0 -14 3 -23 1 -23 -6 0 -7 -5
-5 -10 3 -5 8 -10 11 -10 7 0 -5 -5 -5 -10 -2 -6 4 -8 11 -4 16 3 5 11 6 17 2
7 -4 21 -9 31 -10z m916 -29 c0 -8 -19 -13 -24 -6 -3 5 1 9 9 9 8 0 15 -2 15
-3z m40 2 c0 -3 -4 -8 -10 -11 -5 -3 -10 -1 -10 4 0 6 5 11 10 11 6 0 10 -2
10 -4z m-1175 -25 c-3 -2 -16 -6 -28 -8 -15 -2 -18 0 -9 5 14 9 45 12 37 3z
m-119 -19 c1 -7 0 -8 -2 -3 -9 16 -33 1 -27 -17 4 -15 3 -15 -6 -2 -8 11 -11
12 -11 2 0 -7 -4 -10 -10 -7 -5 3 -10 -2 -11 -12 0 -12 -2 -14 -6 -4 -3 7 7
24 23 37 30 24 46 26 50 6z m1709 -62 c3 -5 1 -10 -4 -10 -6 0 -11 5 -11 10 0
6 2 10 4 10 3 0 8 -4 11 -10z m140 -100 c3 -5 1 -10 -4 -10 -6 0 -11 5 -11 10
0 6 2 10 4 10 3 0 8 -4 11 -10z m120 -60 c3 -5 1 -10 -4 -10 -6 0 -11 5 -11
10 0 6 2 10 4 10 3 0 8 -4 11 -10z m-2548 -62 c-3 -8 -6 -5 -6 6 -1 11 2 17 5
13 3 -3 4 -12 1 -19z m2696 -12 c4 -10 1 -13 -8 -9 -8 3 -12 9 -9 14 7 12 11
11 17 -5z m-2787 -25 c0 -12 -5 -17 -15 -13 -8 3 -12 1 -8 -4 3 -6 1 -16 -4
-24 -7 -12 -8 -10 -6 7 2 17 23 53 31 53 1 0 2 -8 2 -19z m-83 -54 c3 -8 1
-20 -5 -28 -8 -11 -9 -10 -4 5 5 14 2 17 -10 12 -14 -5 -15 -4 -4 9 15 18 17
18 23 2z m-63 -63 c0 -8 -19 -13 -24 -6 -3 5 1 9 9 9 8 0 15 -2 15 -3z m-52
-49 c-3 -3 -9 2 -12 12 -6 14 -5 15 5 6 7 -7 10 -15 7 -18z m3245 10 c-3 -9
-8 -14 -10 -11 -3 3 -2 9 2 15 9 16 15 13 8 -4z m-3346 -74 c1 -14 -3 -18 -13
-14 -11 4 -12 9 -3 19 15 18 14 18 16 -5z m3487 -30 c6 -10 -24 -25 -32 -16
-3 3 0 5 7 5 7 0 9 5 6 10 -3 6 -2 10 4 10 5 0 12 -4 15 -9z m46 -65 c0 -2 -7
-7 -16 -10 -8 -3 -12 -2 -9 4 6 10 25 14 25 6z m-3679 -63 c12 -16 12 -17 -2
-6 -9 7 -20 9 -24 5 -5 -4 -5 -1 -1 6 9 16 11 15 27 -5z m-111 -153 c0 -5 -5
-10 -11 -10 -5 0 -7 5 -4 10 3 6 8 10 11 10 2 0 4 -4 4 -10z m4026 -70 c0 -12
-4 -16 -9 -11 -5 5 -6 14 -3 20 10 15 12 14 12 -9z m154 -270 c0 -5 -2 -10 -4
-10 -3 0 -8 5 -11 10 -3 6 -1 10 4 10 6 0 11 -4 11 -10z m-4480 -105 c0 -2 -6
-5 -13 -8 -8 -3 -14 1 -14 8 0 7 6 11 14 8 7 -3 13 -6 13 -8z m0 -29 c0 -3 -4
-8 -10 -11 -5 -3 -10 -1 -10 4 0 6 5 11 10 11 6 0 10 -2 10 -4z m-85 -146 c3
-5 -1 -10 -10 -10 -9 0 -13 5 -10 10 3 6 8 10 10 10 2 0 7 -4 10 -10z m4854
-403 c0 -8 -2 -8 -6 1 -4 10 -8 10 -21 0 -15 -12 -16 -11 -3 4 14 19 32 15 30
-5z m41 -152 c9 -10 9 -15 1 -15 -6 0 -11 5 -11 12 0 6 -2 9 -5 6 -8 -7 6 -39
14 -34 4 3 7 -4 7 -14 0 -10 -4 -17 -7 -14 -4 2 -10 0 -14 -6 -3 -5 -1 -10 4
-10 6 0 11 -4 11 -10 0 -17 -14 -11 -28 11 -8 12 -9 18 -3 15 14 -9 25 14 12
27 -13 13 -15 47 -2 47 5 0 14 -7 21 -15z m-5057 -78 c3 -8 -1 -14 -8 -14 -7
0 -11 6 -8 14 3 7 6 13 8 13 2 0 5 -6 8 -13z m5064 -48 c2 -16 0 -17 -18 -1
-10 9 -19 17 -19 17 0 0 8 1 18 1 10 0 19 -8 19 -17z m1 -574 c-3 -3 -9 2 -12
12 -6 14 -5 15 5 6 7 -7 10 -15 7 -18z m-5061 -10 c0 -8 -8 -22 -17 -30 -14
-13 -16 -12 -17 8 0 12 1 16 4 9 3 -6 9 -10 13 -7 5 3 7 12 3 20 -3 8 -1 15 4
15 5 0 10 -7 10 -15z m5057 -14 c3 -4 0 -15 -7 -24 -9 -13 -16 -14 -27 -6 -13
9 -13 10 2 6 9 -4 19 1 22 10 5 11 2 14 -9 9 -9 -3 -13 -2 -10 4 8 12 22 13
29 1z m-5044 -71 c-7 -4 -9 -13 -5 -20 6 -9 3 -9 -14 0 -12 6 -19 15 -16 21 4
5 11 7 16 4 5 -4 9 -1 9 5 0 6 5 8 11 4 8 -5 8 -9 -1 -14z m-16 -57 c-5 -15
-3 -15 10 1 9 11 16 15 16 10 0 -16 -21 -33 -36 -27 -7 2 -10 11 -7 19 8 20
23 17 17 -3z m51 -93 c3 -6 -1 -7 -9 -4 -18 7 -21 14 -7 14 6 0 13 -4 16 -10z
m165 -530 c-13 -8 -12 -11 5 -24 11 -9 16 -16 10 -16 -5 0 -3 -5 5 -10 13 -9
13 -10 0 -10 -13 0 -13 -1 0 -11 13 -9 13 -10 0 -6 -8 2 -15 12 -15 23 0 10
-8 25 -18 33 -15 11 -16 15 -6 22 8 5 19 9 24 9 6 0 3 -5 -5 -10z m148 -291
c-2 -6 -8 -10 -13 -10 -5 0 -11 4 -13 10 -2 6 4 11 13 11 9 0 15 -5 13 -11z
m4699 -41 c2 -17 0 -19 -7 -8 -5 8 -6 18 -4 22 8 12 10 10 11 -14z m-4637 -58
c0 -5 -2 -10 -4 -10 -3 0 -8 5 -11 10 -3 6 -1 10 4 10 6 0 11 -4 11 -10z
m4600 6 c0 -3 -4 -8 -10 -11 -5 -3 -10 -1 -10 4 0 6 5 11 10 11 6 0 10 -2 10
-4z m-5 -66 c3 -5 1 -10 -4 -10 -6 0 -11 5 -11 10 0 6 2 10 4 10 3 0 8 -4 11
-10z m-35 -85 c0 -12 -19 -12 -23 0 -4 9 -1 12 9 8 7 -3 14 -7 14 -8z m-21
-33 c7 -14 6 -19 -4 -19 -7 0 -13 9 -12 19 1 10 2 18 4 18 1 0 7 -8 12 -18z
m-44 -50 c9 -6 19 -32 12 -32 -1 0 -10 9 -20 20 -16 20 -12 27 8 12z m-42 -27
c-3 -9 -8 -14 -10 -11 -3 3 -2 9 2 15 9 16 15 13 8 -4z m-338 -354 c3 -5 2
-12 -3 -15 -5 -3 -9 1 -9 9 0 17 3 19 12 6z m-3450 -41 c3 -6 -1 -7 -9 -4 -18
7 -21 14 -7 14 6 0 13 -4 16 -10z m3455 6 c0 -3 -4 -8 -10 -11 -5 -3 -10 -1
-10 4 0 6 5 11 10 11 6 0 10 -2 10 -4z m-53 -22 c-3 -3 -12 -4 -19 -1 -8 3 -5
6 6 6 11 1 17 -2 13 -5z m-3325 -22 c-3 -10 -1 -13 6 -8 7 4 12 3 12 -3 0 -21
-18 -19 -28 3 -8 17 -7 23 3 23 8 0 11 -7 7 -15z m70 -34 c-9 -9 -9 -15 1 -27
10 -14 10 -14 -5 -3 -17 14 -14 42 5 42 8 0 7 -4 -1 -12z m3188 2 c0 -5 -5
-10 -11 -10 -5 0 -7 5 -4 10 3 6 8 10 11 10 2 0 4 -4 4 -10z m-3136 -19 c-8
-8 -34 -10 -38 -2 -3 4 6 7 19 7 14 0 22 -2 19 -5z m3093 -13 c-3 -8 -6 -5 -6
6 -1 11 2 17 5 13 3 -3 4 -12 1 -19z m-3093 -24 c5 -14 4 -15 -9 -4 -17 14
-19 20 -6 20 5 0 12 -7 15 -16z m3026 -20 c0 -8 -19 -13 -24 -6 -3 5 1 9 9 9
8 0 15 -2 15 -3z m20 -28 c0 -3 -4 -8 -10 -11 -5 -3 -10 -1 -10 4 0 6 5 11 10
11 6 0 10 -2 10 -4z m-900 -71 c-7 -8 -17 -15 -23 -15 -6 0 -2 7 9 15 25 19
30 19 14 0z m-1826 -36 c-3 -5 -10 -7 -15 -3 -5 3 -7 10 -3 15 3 5 10 7 15 3
5 -3 7 -10 3 -15z m1776 -8 c0 -4 -9 -7 -20 -8 -19 -2 -26 8 -14 20 7 7 34 -2
34 -12z m260 9 c0 -5 -5 -10 -11 -10 -5 0 -7 5 -4 10 3 6 8 10 11 10 2 0 4 -4
4 -10z m498 -15 c-3 -3 -9 2 -12 12 -6 14 -5 15 5 6 7 -7 10 -15 7 -18z m-401
-42 c0 -9 -4 -10 -14 -2 -7 6 -13 12 -13 14 0 1 6 2 13 2 8 0 14 -6 14 -14z
m52 -29 c-11 -13 -10 -15 6 -12 10 1 19 -3 21 -10 1 -7 0 -8 -3 -2 -2 5 -9 8
-14 4 -17 -10 -31 7 -18 22 6 8 14 14 16 14 3 0 0 -7 -8 -16z m-1825 -5 c-2
-4 3 -9 11 -13 8 -3 15 0 15 6 0 6 3 9 6 5 15 -15 -8 -27 -29 -15 -12 7 -25
11 -29 10 -5 -1 -8 2 -8 7 0 6 9 9 19 8 11 0 18 -4 15 -8z m1086 5 c0 -8 -19
-13 -24 -6 -3 5 1 9 9 9 8 0 15 -2 15 -3z m-954 -41 c-7 -7 -21 -4 -21 5 0 4
-4 14 -9 22 -6 9 -1 7 12 -4 12 -11 20 -21 18 -23z m781 11 c-3 -3 -12 -4 -19
-1 -8 3 -5 6 6 6 11 1 17 -2 13 -5z m27 -26 c-3 -5 -10 -6 -15 -3 -5 4 -9 2
-9 -2 0 -5 -9 -9 -20 -10 -11 -1 -18 2 -15 8 4 5 13 9 21 9 8 0 17 7 21 16 4
12 8 13 14 3 4 -7 5 -17 3 -21z m24 7 c-3 -3 -9 2 -12 12 -6 14 -5 15 5 6 7
-7 10 -15 7 -18z m-101 -3 c-10 -2 -14 -8 -11 -15 4 -7 3 -8 -1 -4 -19 17 -13
35 9 29 18 -5 18 -7 3 -10z m1120 0 c9 -15 8 -19 -3 -19 -7 0 -11 4 -8 9 3 4
0 8 -5 8 -6 0 -11 5 -11 10 0 16 14 12 27 -8z m-32 -20 c-3 -3 -11 0 -18 7 -9
10 -8 11 6 5 10 -3 15 -9 12 -12z"/>
<path d="M2943 5105 c0 -8 4 -12 9 -9 5 4 15 -1 21 -10 11 -14 14 -14 32 0 20
16 19 16 -4 9 -18 -6 -22 -4 -16 6 5 8 5 11 0 7 -4 -4 -15 -3 -25 2 -12 6 -17
5 -17 -5z"/>
<path d="M3048 5093 c-22 -5 -24 -20 -3 -20 8 0 16 6 19 14 3 7 4 12 3 12 -1
-1 -10 -3 -19 -6z"/>
<path d="M1877 5059 c7 -7 15 -10 18 -7 3 3 -2 9 -12 12 -14 6 -15 5 -6 -5z"/>
<path d="M3217 5035 c-9 -22 13 -30 31 -11 16 16 16 17 -2 10 -13 -5 -17 -4
-12 4 4 7 3 12 -2 12 -6 0 -12 -7 -15 -15z"/>
<path d="M3477 4973 c-10 -9 -9 -23 1 -23 5 0 9 7 9 15 0 17 -1 18 -10 8z"/>
<path d="M1464 4879 c0 -16 2 -17 16 -4 9 8 20 13 23 10 4 -3 5 -2 2 2 -12 15
-41 9 -41 -8z"/>
<path d="M3688 4871 c8 -4 13 -11 13 -15 -1 -3 1 -6 4 -6 3 0 8 0 11 0 4 0 1
7 -6 15 -7 8 -18 15 -24 15 -7 0 -6 -4 2 -9z"/>
<path d="M1300 4826 c0 -3 9 -10 20 -16 11 -6 20 -8 20 -6 0 3 -9 10 -20 16
-11 6 -20 8 -20 6z"/>
<path d="M1216 4778 c3 -5 10 -6 15 -3 13 9 11 12 -6 12 -8 0 -12 -4 -9 -9z"/>
<path d="M1256 4779 c3 -5 0 -9 -7 -9 -7 0 -9 -3 -6 -6 4 -4 13 -2 20 4 8 7
16 11 18 9 2 -1 3 0 1 2 -1 3 -9 6 -17 7 -8 1 -13 -2 -9 -7z"/>
<path d="M3875 4753 c-3 -10 -3 -14 1 -10 4 4 13 2 21 -4 17 -15 17 -1 -1 16
-12 12 -15 12 -21 -2z"/>
<path d="M3986 4702 c-7 -12 12 -38 21 -28 4 5 2 11 -5 13 -6 3 -10 9 -6 14 3
5 3 9 0 9 -3 0 -7 -4 -10 -8z"/>
<path d="M4050 4642 c0 -15 11 -21 27 -15 12 5 12 7 1 14 -17 11 -28 11 -28 1z"/>
<path d="M4097 4604 c2 -7 11 -10 19 -7 19 7 18 10 -5 16 -13 3 -18 1 -14 -9z"/>
<path d="M4226 4516 c6 -15 4 -17 -6 -11 -9 6 -11 4 -5 -4 5 -9 10 -10 18 -2
8 8 7 14 -2 24 -10 10 -11 8 -5 -7z"/>
<path d="M4463 4269 c9 -6 15 -14 12 -19 -3 -5 -1 -11 5 -15 6 -3 9 4 8 17 -1
16 -9 25 -23 25 -18 2 -18 1 -2 -8z"/>
<path d="M587 4213 c4 -11 2 -14 -5 -9 -8 5 -10 2 -6 -8 8 -21 11 -20 23 3 8
14 7 20 -4 24 -10 4 -12 1 -8 -10z"/>
<path d="M555 4181 c3 -5 -2 -17 -11 -25 -8 -9 -11 -16 -5 -16 6 0 15 9 21 19
13 25 13 31 -1 31 -5 0 -8 -4 -4 -9z"/>
<path d="M4549 4173 c-13 -16 -12 -17 4 -4 9 7 17 15 17 17 0 8 -8 3 -21 -13z"/>
<path d="M467 4055 c3 -8 9 -12 14 -9 12 7 11 11 -5 17 -10 4 -13 1 -9 -8z"/>
<path d="M4776 3853 c-6 -14 -5 -15 5 -6 7 7 10 15 7 18 -3 3 -9 -2 -12 -12z"/>
<path d="M4855 3740 c3 -5 8 -10 11 -10 2 0 4 5 4 10 0 6 -5 10 -11 10 -5 0
-7 -4 -4 -10z"/>
<path d="M280 3729 c0 -5 5 -7 10 -4 6 3 10 8 10 11 0 2 -4 4 -10 4 -5 0 -10
-5 -10 -11z"/>
<path d="M4900 3596 c7 -7 14 -6 21 1 9 9 7 12 -9 10 -14 -1 -18 -5 -12 -11z"/>
<path d="M146 3468 c3 -5 10 -6 15 -3 13 9 11 12 -6 12 -8 0 -12 -4 -9 -9z"/>
<path d="M4986 3417 c3 -10 9 -15 12 -12 3 3 0 11 -7 18 -10 9 -11 8 -5 -6z"/>
<path d="M4996 3361 c-3 -4 1 -16 8 -26 10 -14 15 -15 21 -5 5 9 4 11 -3 6
-11 -6 -16 6 -13 27 1 10 -7 9 -13 -2z"/>
<path d="M79 3263 c-13 -17 -13 -17 6 -3 11 8 22 16 24 17 2 2 0 3 -6 3 -6 0
-17 -8 -24 -17z"/>
<path d="M5035 3180 c-3 -5 1 -10 10 -10 9 0 13 5 10 10 -3 6 -8 10 -10 10 -2
0 -7 -4 -10 -10z"/>
<path d="M5075 3051 c4 -7 2 -18 -5 -26 -15 -18 7 -32 23 -16 9 9 7 10 -8 5
-18 -7 -18 -6 -6 9 7 9 17 14 22 11 5 -3 9 -3 9 0 0 3 -10 10 -21 17 -16 8
-20 8 -14 0z"/>
<path d="M5070 2136 c0 -2 7 -7 16 -10 8 -3 12 -2 9 4 -6 10 -25 14 -25 6z"/>
<path d="M35 2040 c-3 -5 -1 -10 4 -10 6 0 11 5 11 10 0 6 -2 10 -4 10 -3 0
-8 -4 -11 -10z"/>
<path d="M63 1925 c0 -8 4 -15 9 -15 4 0 8 4 8 9 0 6 -4 12 -8 15 -5 3 -9 -1
-9 -9z"/>
<path d="M5030 1921 c0 -5 8 -15 18 -22 15 -12 16 -12 5 2 -7 9 -10 19 -6 22
3 4 1 7 -5 7 -7 0 -12 -4 -12 -9z"/>
<path d="M5005 1841 c-6 -11 9 -23 19 -14 9 9 7 23 -3 23 -6 0 -12 -4 -16 -9z"/>
<path d="M95 1780 c-3 -5 -2 -10 4 -10 5 0 13 5 16 10 3 6 2 10 -4 10 -5 0
-13 -4 -16 -10z"/>
<path d="M5003 1766 c7 -14 13 -23 15 -21 7 6 -9 45 -18 45 -4 0 -3 -11 3 -24z"/>
<path d="M5015 1622 c6 -4 10 -13 11 -19 3 -34 4 -35 19 -23 12 10 15 10 15 0
0 -8 3 -10 7 -7 8 8 -36 57 -51 57 -7 0 -8 -3 -1 -8z m30 -22 c3 -5 1 -10 -4
-10 -6 0 -11 5 -11 10 0 6 2 10 4 10 3 0 8 -4 11 -10z"/>
<path d="M5067 1523 c3 -7 6 -13 8 -13 2 0 5 6 8 13 3 8 -1 14 -8 14 -7 0 -11
-6 -8 -14z"/>
<path d="M304 1307 c-10 -12 -12 -16 -4 -9 22 19 32 14 25 -10 -3 -13 -3 -18
2 -13 5 6 11 12 15 15 3 3 1 13 -6 22 -12 17 -14 16 -32 -5z"/>
<path d="M5066 978 c3 -5 10 -6 15 -3 13 9 11 12 -6 12 -8 0 -12 -4 -9 -9z"/>
<path d="M717 749 c7 -7 15 -10 18 -7 3 3 -2 9 -12 12 -14 6 -15 5 -6 -5z"/>
<path d="M4854 719 c-15 -16 -22 -29 -16 -29 7 0 12 5 12 11 0 5 6 7 13 3 6
-4 9 -4 5 0 -10 11 14 34 29 29 7 -3 13 -3 13 0 0 19 -32 11 -56 -14z"/>
<path d="M844 655 c-4 -8 -10 -12 -15 -9 -15 9 -10 -3 7 -16 8 -8 14 -9 13 -4
-1 5 -1 15 0 23 1 11 4 11 19 0 15 -13 16 -12 3 4 -16 21 -20 21 -27 2z"/>
<path d="M4776 601 c-4 -5 3 -7 14 -4 23 6 26 13 6 13 -8 0 -17 -4 -20 -9z"/>
<path d="M1079 488 c0 -2 -2 -11 -4 -21 -3 -15 -1 -16 11 -6 7 6 11 15 8 20
-5 9 -13 12 -15 7z"/>
<path d="M4306 232 c-2 -4 0 -14 6 -22 8 -12 9 -12 4 2 -3 10 1 18 12 21 16 4
16 5 0 6 -9 0 -19 -3 -22 -7z"/>
<path d="M1530 222 c0 -7 5 -12 11 -12 5 0 8 -4 5 -9 -7 -11 21 -9 29 2 3 4 2
5 -2 2 -3 -3 -15 2 -25 12 -11 9 -18 11 -18 5z"/>
<path d="M3575 210 c-7 -12 -9 -11 33 -15 32 -3 40 4 10 9 -7 1 -18 5 -25 9
-6 4 -14 3 -18 -3z"/>
<path d="M1761 117 c-8 -10 -7 -14 2 -14 6 0 19 -3 27 -5 8 -3 12 -3 7 -1 -4
3 -5 9 -2 14 4 5 -2 6 -11 2 -12 -4 -15 -3 -10 5 10 16 1 15 -13 -1z"/>
<path d="M3710 116 c0 -3 9 -10 20 -16 11 -6 20 -8 20 -6 0 3 -9 10 -20 16
-11 6 -20 8 -20 6z"/>
<path d="M1910 90 c0 -5 5 -10 11 -10 5 0 7 5 4 10 -3 6 -8 10 -11 10 -2 0 -4
-4 -4 -10z"/>
<path d="M3270 90 c0 -5 5 -10 11 -10 5 0 7 5 4 10 -3 6 -8 10 -11 10 -2 0 -4
-4 -4 -10z"/>
<path d="M3060 56 c0 -2 8 -10 18 -17 15 -13 16 -12 3 4 -13 16 -21 21 -21 13z"/>
<path d="M4018 42 c4 -10 7 -12 10 -4 2 7 9 9 15 5 7 -3 8 -2 4 2 -14 16 -36
14 -29 -3z"/>
<path d="M2055 20 c-3 -6 1 -7 9 -4 18 7 21 14 7 14 -6 0 -13 -4 -16 -10z"/>
<path d="M2090 20 c0 -5 5 -10 11 -10 5 0 7 5 4 10 -3 6 -8 10 -11 10 -2 0 -4
-4 -4 -10z"/>
<path d="M2161 21 c-8 -5 -9 -11 -3 -15 5 -3 12 1 16 9 6 17 6 18 -13 6z"/>
</g>
</svg>
